<?xml version="1.0" standalone="no"?>
<!DOCTYPE svg PUBLIC "-//W3C//DTD SVG 20010904//EN"
 "http://www.w3.org/TR/2001/REC-SVG-20010904/DTD/svg10.dtd">
<svg version="1.0" xmlns="http://www.w3.org/2000/svg"
 width="512.000000pt" height="512.000000pt" viewBox="0 0 512.000000 512.000000"
 preserveAspectRatio="xMidYMid meet">
<metadata>
Created by potrace 1.11, written by Peter Selinger 2001-2013
</metadata>
<g transform="translate(0.000000,512.000000) scale(0.100000,-0.100000)"
fill="#000000" stroke="none">
<path d="M2390 5004 c-167 -29 -261 -67 -323 -132 -54 -56 -54 -137 0 -194 31
-33 148 -94 200 -104 43 -8 49 -17 67 -98 35 -151 39 -317 11 -471 -11 -59
-13 -61 -93 -79 -42 -10 -113 -31 -157 -47 l-79 -28 -56 57 c-131 135 -191
231 -253 403 l-24 66 48 53 c26 29 62 81 79 116 28 55 32 71 28 119 -8 95 -68
136 -190 129 -176 -10 -440 -148 -619 -324 -160 -157 -209 -268 -161 -360 43
-78 166 -96 317 -44 55 18 50 21 154 -86 90 -92 153 -180 205 -285 48 -96 54
-119 34 -132 -28 -18 -141 -149 -193 -223 -55 -78 -56 -79 -93 -73 -136 21
-303 89 -424 172 -113 78 -107 71 -98 121 12 64 5 199 -13 240 -18 41 -51 75
-89 89 -133 50 -333 -163 -453 -484 -95 -255 -95 -489 0 -551 80 -52 149 -30
263 84 82 82 83 83 125 77 108 -15 264 -63 354 -109 91 -46 188 -121 186 -141
-1 -11 -5 -49 -9 -85 -4 -36 -8 -119 -8 -185 l-1 -119 -60 -34 c-133 -75 -283
-119 -440 -128 l-100 -5 -37 58 c-102 160 -219 216 -305 146 -61 -49 -78 -104
-77 -253 3 -455 319 -940 507 -777 46 39 70 111 73 216 3 111 -4 103 139 174
109 54 186 81 290 101 152 30 144 32 193 -53 56 -97 117 -182 185 -257 l56
-61 -21 -39 c-51 -96 -160 -223 -270 -315 l-57 -47 -65 24 c-161 58 -275 50
-323 -22 -25 -38 -26 -116 -2 -172 68 -158 297 -367 519 -475 108 -53 155 -67
240 -74 65 -5 82 -2 118 16 100 51 98 172 -5 314 -21 29 -41 55 -46 58 -30 21
152 336 248 429 l34 33 91 -38 c112 -45 169 -62 280 -85 101 -20 100 -19 101
-190 1 -126 -1 -144 -32 -270 l-20 -86 -65 -17 c-35 -9 -89 -29 -120 -44 -54
-26 -123 -91 -125 -116 0 -6 -2 -20 -4 -30 -12 -61 54 -140 153 -184 58 -25
155 -51 237 -61 69 -9 308 -8 375 1 277 40 430 167 359 299 -21 40 -108 95
-192 123 -74 24 -86 31 -91 54 -20 98 -26 135 -33 201 -9 93 -9 210 1 271 l7
46 57 13 c75 17 189 55 268 90 l63 29 45 -49 c82 -88 158 -217 206 -351 28
-78 28 -78 8 -96 -35 -32 -108 -139 -123 -183 -33 -93 -8 -166 68 -200 150
-67 497 82 733 315 157 156 204 264 156 355 -45 83 -160 95 -348 35 -17 -5
-36 8 -100 72 -99 97 -170 192 -226 300 -37 73 -41 85 -28 96 28 22 107 121
161 202 l54 81 40 -8 c123 -25 287 -100 406 -186 70 -51 78 -60 73 -82 -12
-50 -12 -186 0 -233 21 -79 86 -131 154 -122 210 27 481 524 468 860 -5 110
-29 161 -93 194 -68 35 -140 5 -245 -101 -75 -76 -79 -79 -115 -73 -188 30
-339 85 -474 172 l-56 36 10 46 c8 41 11 304 5 405 l-3 40 83 42 c134 69 259
102 412 111 l95 5 33 -54 c92 -148 207 -214 293 -167 32 17 70 76 84 131 14
49 15 221 2 273 -2 11 -8 40 -12 65 -13 82 -83 274 -132 362 -108 197 -234
284 -333 233 -59 -30 -90 -108 -96 -240 -4 -104 0 -99 -133 -165 -91 -46 -198
-86 -252 -95 -19 -3 -41 -8 -49 -10 -8 -2 -52 -7 -97 -10 l-82 -6 -14 28 c-21
38 -114 162 -161 213 l-38 42 27 64 c59 139 195 310 319 402 l39 29 86 -30
c154 -54 264 -39 306 43 89 173 -267 552 -638 680 -287 99 -415 -72 -233 -314
l44 -58 -30 -72 c-69 -162 -162 -291 -294 -408 l-42 -36 -86 35 c-48 19 -128
45 -179 58 l-92 23 -12 41 c-23 79 -31 243 -19 356 8 69 41 204 53 215 4 4 35
15 68 25 33 9 84 29 113 43 54 26 121 90 123 117 1 8 2 25 3 38 6 62 -41 119
-140 167 -54 26 -92 37 -219 66 -58 13 -339 12 -415 -2z"/>
</g>
</svg>
